{"title":"Machete Kills 2013 R6 HDRip x264 AC3-SmY","uid":9121517,"size":1676060827,"categoryP":"video","categoryS":"movies","magnet":"?xt=urn:btih:5c8f151bd032d02baa4fa46129b14db9fe8b3723&amp;dn=Machete+Kills+2013+R6+HDRip+x264+AC3-SmY&amp;tr=udp%3A%2F%2Ftracker.openbittorrent.com%3A80&amp;tr=udp%3A%2F%2Fopen.demonii.com%3A1337&amp;tr=udp%3A%2F%2Ftracker.coppersurfer.tk%3A6969&amp;tr=udp%3A%2F%2Fexodus.desync.com%3A6969","seeders":1,"leechers":0,"uploader":"TeX","files":2,"time":1383142625,"description":" &lt;a href=&quot;http://wac.450f.edgecastcdn.net/80450F/screencrush.com/files/2013/03/machete_kills_sofia_vergara_poster.jpg&quot; rel=&quot;nofollow&quot; target=&quot;_NEW&quot;&gt;http://wac.450f.edgecastcdn.net/80450F/screencrush.com/files/2013/03/machete_kills_sofia_vergara_poster.jpg&lt;/a&gt;\n\n   Format : Matroska\n      File size : 1.56 GiB\n      Duration : 1h 41mn\n      Overall bit rate : 2 203 Kbps\n      Encoded date : UTC 2010-02-22 21:41:31\n      Writing application : mkvmerge v5.9.0 ('On The Loose') built on Dec  9 2012 15:37:01\n      Writing library : libebml v1.3.0 + libmatroska v1.4.0\n   Video #1\n      ID : 1\n      Format : AVC\n      Format/Info : Advanced Video Codec\n      Format profile : &lt;a class=&quot;__cf_email__&quot; href=&quot;/cdn-cgi/l/email-protection&quot; data-cfemail=&quot;3f775658577f730c110e&quot;&gt;[email&amp;#160;protected]&lt;/a&gt;&lt;script cf-hash='f9e31' type=&quot;text/javascript&quot;&gt;\n/* &lt;![CDATA[ */!function(){try{var t=&quot;currentScript&quot;in document?document.currentScript:function(){for(var t=document.getElementsByTagName(&quot;script&quot;),e=t.length;e--;)if(t[e].getAttribute(&quot;cf-hash&quot;))return t[e]}();if(t&amp;&amp;t.previousSibling){var e,r,n,i,c=t.previousSibling,a=c.getAttribute(&quot;data-cfemail&quot;);if(a){for(e=&quot;&quot;,r=parseInt(a.substr(0,2),16),n=2;a.length-n;n+=2)i=parseInt(a.substr(n,2),16)^r,e+=String.fromCharCode(i);e=document.createTextNode(e),c.parentNode.replaceChild(e,c)}}}catch(u){}}();/* ]]&gt; */&lt;/script&gt;\n      Format settings, CABAC : Yes\n      Format settings, ReFrames : 4 frames\n      Muxing mode : Header stripping\n      Codec ID : V_MPEG4/ISO/AVC\n      Duration : 1h 41mn\n      Bit rate : 2 000 Kbps\n      Width : 656 pixels\n      Height : 352 pixels\n      Display aspect ratio : 1.864\n      Frame rate : 29.970 fps\n      Color space : YUV\n      Chroma subsampling : 4:2:0\n      Bit depth : 8 bits\n      Scan type : Progressive\n      Bits/(Pixel*Frame) : 0.289\n      Stream size : 1.39 GiB (89%)\n      Writing library : x264 core 116 r2074 2641b9e\n   Audio #2\n      ID : 2\n      Format : AC-3\n      Format/Info : Audio Coding 3\n      Mode extension : CM (complete main)\n      Muxing mode : Header stripping\n      Codec ID : A_AC3\n      Duration : 1h 41mn\n      Bit rate mode : Constant\n      Bit rate : 192 Kbps\n      Channel(s) : 2 channels\n      Channel positions : Front: L R\n      Sampling rate : 48.0 KHz\n      Bit depth : 16 bits\n      Compression mode : Lossy\n      Stream size : 139 MiB (9%)\n &lt;a href=&quot;\nhttp://i.imgur.com/zTnI4D3.jpg&quot; rel=&quot;nofollow&quot; target=&quot;_NEW&quot;&gt;\nhttp://i.imgur.com/zTnI4D3.jpg&lt;/a&gt; &lt;a href=&quot;\nhttp://i.imgur.com/0fYgetb.jpg&quot; rel=&quot;nofollow&quot; target=&quot;_NEW&quot;&gt;\nhttp://i.imgur.com/0fYgetb.jpg&lt;/a&gt; &lt;a href=&quot;\nhttp://i.imgur.com/jjaoJdj.jpg&quot; rel=&quot;nofollow&quot; target=&quot;_NEW&quot;&gt;\nhttp://i.imgur.com/jjaoJdj.jpg&lt;/a&gt;","torrent":{"xt":"urn:btih:5c8f151bd032d02baa4fa46129b14db9fe8b3723","amp;dn":"Machete+Kills+2013+R6+HDRip+x264+AC3-SmY","amp;tr":["udp%3A%2F%2Ftracker.openbittorrent.com%3A80","udp%3A%2F%2Fopen.demonii.com%3A1337","udp%3A%2F%2Ftracker.coppersurfer.tk%3A6969","udp%3A%2F%2Fexodus.desync.com%3A6969"],"infoHash":"5c8f151bd032d02baa4fa46129b14db9fe8b3723","infoHashBuffer":{"type":"Buffer","data":[92,143,21,27,208,50,208,43,170,79,164,97,41,177,77,185,254,139,55,35]},"announce":[],"urlList":[]}}